<svg xmlns="http://www.w3.org/2000/svg" viewBox="0 0 500 500" width="100%" height="100%">
  <defs>
    <filter id="shadow" x="-10%" y="-10%" width="130%" height="130%">
      <feDropShadow dx="0" dy="8" stdDeviation="12" flood-color="#0f172a" flood-opacity="0.15" />
    </filter>
    <filter id="softShadow" x="-20%" y="-20%" width="140%" height="140%">
      <feDropShadow dx="0" dy="4" stdDeviation="6" flood-color="#000000" flood-opacity="0.12" />
    </filter>
    <linearGradient id="blueGrad" x1="0" y1="0" x2="1" y2="0">
      <stop offset="0%" stop-color="#0055b3" />
      <stop offset="100%" stop-color="#0066cc" />
    </linearGradient>
  </defs>

  <!-- Clean Pure White Background -->
  <rect width="500" height="500" fill="#ffffff" rx="24" />

  <!-- Subtle Inner Border Frame -->
  <rect x="12" y="12" width="476" height="476" rx="20" fill="none" stroke="#f1f5f9" stroke-width="1.5" />

  <!-- Product Cutouts Container -->
  <g transform="translate(0, 10)">
    
      <!-- Mango Jam Jar -->
      <g filter="url(#shadow)" transform="translate(100, 80)">
        <rect x="10" y="30" width="105" height="210" rx="14" fill="#ea580c" opacity="0.95" stroke="#cbd5e1" stroke-width="2"/>
        <rect x="20" y="10" width="85" height="25" rx="6" fill="#ca8a04"/>
        <!-- Label -->
        <rect x="15" y="75" width="95" height="85" rx="6" fill="#fef08a"/>
        <text x="62" y="100" text-anchor="middle" font-family="sans-serif" font-weight="900" font-size="12" fill="#78350f">FRUIT TREE</text>
        <text x="62" y="125" text-anchor="middle" font-family="sans-serif" font-weight="900" font-size="16" fill="#ea580c">MANGO</text>
        <text x="62" y="145" text-anchor="middle" font-family="sans-serif" font-weight="800" font-size="14" fill="#ca8a04">JAM</text>
      </g>
      <!-- Honey Jar -->
      <g filter="url(#shadow)" transform="translate(225, 95)">
        <polygon points="15,40 105,40 120,200 0,200" fill="#b45309" stroke="#cbd5e1" stroke-width="2"/>
        <rect x="25" y="20" width="70" height="25" rx="6" fill="#1e293b"/>
        <!-- Black gold label -->
        <rect x="20" y="80" width="80" height="80" rx="6" fill="#0f172a"/>
        <text x="60" y="105" text-anchor="middle" font-family="sans-serif" font-weight="800" font-size="10" fill="#facc15">NARAN</text>
        <text x="60" y="130" text-anchor="middle" font-family="serif" font-weight="900" font-size="18" fill="#ffffff">HONEY</text>
        <text x="60" y="148" text-anchor="middle" font-family="sans-serif" font-weight="600" font-size="8" fill="#fde047">Pure Pakistan</text>
      </g>
      <!-- Farm fresh eggs -->
      <g filter="url(#softShadow)" transform="translate(170, 230)">
        <ellipse cx="25" cy="30" rx="18" ry="24" fill="#fed7aa" transform="rotate(-15, 25, 30)"/>
        <ellipse cx="55" cy="25" rx="18" ry="24" fill="#fcd34d"/>
        <ellipse cx="85" cy="32" rx="18" ry="24" fill="#fed7aa" transform="rotate(15, 85, 32)"/>
      </g>
    
  </g>

  <!-- Grounding Shadow below products -->
  <ellipse cx="250" cy="385" rx="190" ry="14" fill="#000000" opacity="0.06" filter="blur(8px)" />

  <!-- Bold Blue Department Title at Bottom (Exact Match to Uploaded Pictures) -->
  <text 
    x="250" 
    y="445" 
    text-anchor="middle" 
    font-family="'Plus Jakarta Sans', -apple-system, BlinkMacSystemFont, 'Segoe UI', Roboto, sans-serif" 
    font-weight="800" 
    font-size="34" 
    letter-spacing="0.5" 
    fill="#0052b4"
  >BREAKFAST</text>
</svg>