<svg xmlns="http://www.w3.org/2000/svg" viewBox="0 0 500 500" width="100%" height="100%">
  <defs>
    <filter id="shadow" x="-10%" y="-10%" width="130%" height="130%">
      <feDropShadow dx="0" dy="8" stdDeviation="12" flood-color="#0f172a" flood-opacity="0.15" />
    </filter>
    <filter id="softShadow" x="-20%" y="-20%" width="140%" height="140%">
      <feDropShadow dx="0" dy="4" stdDeviation="6" flood-color="#000000" flood-opacity="0.12" />
    </filter>
    <linearGradient id="blueGrad" x1="0" y1="0" x2="1" y2="0">
      <stop offset="0%" stop-color="#0055b3" />
      <stop offset="100%" stop-color="#0066cc" />
    </linearGradient>
  </defs>

  <!-- Clean Pure White Background -->
  <rect width="500" height="500" fill="#ffffff" rx="24" />

  <!-- Subtle Inner Border Frame -->
  <rect x="12" y="12" width="476" height="476" rx="20" fill="none" stroke="#f1f5f9" stroke-width="1.5" />

  <!-- Product Cutouts Container -->
  <g transform="translate(0, 10)">
    
      <!-- Canbebe Pants Jumbo Pack Size 3 -->
      <g filter="url(#shadow)" transform="translate(135, 65)">
        <rect x="0" y="0" width="190" height="260" rx="18" fill="#6b21a8"/>
        <!-- White puffy cloud heart -->
        <path d="M40,110 C20,70 65,40 95,75 C125,40 170,70 150,110 C125,160 95,180 95,180 C95,180 65,160 40,110 Z" fill="#ffffff"/>
        <text x="95" y="115" text-anchor="middle" font-family="sans-serif" font-weight="900" font-size="20" fill="#581c87">canbebe</text>
        <rect x="65" y="125" width="60" height="20" rx="6" fill="#dc2626"/>
        <text x="95" y="139" text-anchor="middle" font-family="sans-serif" font-weight="900" font-size="11" fill="#ffffff">Pants</text>
        <!-- Size 3 badge -->
        <circle cx="150" cy="195" r="18" fill="#dc2626"/>
        <text x="150" y="202" text-anchor="middle" font-family="sans-serif" font-weight="900" font-size="16" fill="#ffffff">3</text>
        <!-- Diaper count -->
        <rect x="130" y="220" width="40" height="22" rx="4" fill="#0284c7"/>
        <text x="150" y="235" text-anchor="middle" font-family="sans-serif" font-weight="800" font-size="11" fill="#ffffff">62</text>
      </g>
    
  </g>

  <!-- Grounding Shadow below products -->
  <ellipse cx="250" cy="385" rx="190" ry="14" fill="#000000" opacity="0.06" filter="blur(8px)" />

  <!-- Bold Blue Department Title at Bottom (Exact Match to Uploaded Pictures) -->
  <text 
    x="250" 
    y="445" 
    text-anchor="middle" 
    font-family="'Plus Jakarta Sans', -apple-system, BlinkMacSystemFont, 'Segoe UI', Roboto, sans-serif" 
    font-weight="800" 
    font-size="34" 
    letter-spacing="0.5" 
    fill="#0052b4"
  >DIAPERING & NAPPING</text>
</svg>